<mxfile host="app.diagrams.net" modified="2023-11-03T18:48:18.403Z" agent="Mozilla/5.0 (Macintosh; Intel Mac OS X 10_15_7) AppleWebKit/537.36 (KHTML, like Gecko) Chrome/118.0.0.0 Safari/537.36" etag="9Vc8dE2PQZy1dbLtiNpy" version="22.0.8" type="github">
  <diagram name="第 1 页" id="YrESG4-pe0sYExbxf6HH">
    <mxGraphModel dx="724" dy="398" grid="0" gridSize="10" guides="1" tooltips="1" connect="1" arrows="1" fold="1" page="1" pageScale="1" pageWidth="827" pageHeight="1169" math="0" shadow="0">
      <root>
        <mxCell id="0" />
        <mxCell id="1" parent="0" />
        <mxCell id="qDwPxaCXtAMD6tZ4ISzB-16" style="rounded=0;orthogonalLoop=1;jettySize=auto;html=1;exitX=1;exitY=0.5;exitDx=0;exitDy=0;entryX=0;entryY=0.5;entryDx=0;entryDy=0;fillColor=#dae8fc;gradientColor=#7ea6e0;strokeColor=#6c8ebf;endArrow=openThin;endFill=0;" parent="1" source="qDwPxaCXtAMD6tZ4ISzB-3" target="qDwPxaCXtAMD6tZ4ISzB-4" edge="1">
          <mxGeometry relative="1" as="geometry" />
        </mxCell>
        <mxCell id="qDwPxaCXtAMD6tZ4ISzB-3" value="i" style="rounded=0;whiteSpace=wrap;fillColor=#7fadf0;strokeColor=#5f8abb;gradientDirection=radial;aspect=fixed;fontSize=11;fontColor=#ffffff;" parent="1" vertex="1">
          <mxGeometry x="224" y="469" width="15" height="15" as="geometry" />
        </mxCell>
        <mxCell id="qDwPxaCXtAMD6tZ4ISzB-18" style="rounded=0;orthogonalLoop=1;jettySize=auto;html=1;exitX=1;exitY=0.5;exitDx=0;exitDy=0;entryX=0;entryY=0.5;entryDx=0;entryDy=0;fillColor=#dae8fc;gradientColor=#7ea6e0;strokeColor=#6c8ebf;startArrow=none;startFill=0;endArrow=openThin;endFill=0;" parent="1" source="qDwPxaCXtAMD6tZ4ISzB-4" target="qDwPxaCXtAMD6tZ4ISzB-5" edge="1">
          <mxGeometry relative="1" as="geometry" />
        </mxCell>
        <mxCell id="qDwPxaCXtAMD6tZ4ISzB-21" style="edgeStyle=none;shape=connector;rounded=0;orthogonalLoop=1;jettySize=auto;html=1;exitX=1;exitY=0.5;exitDx=0;exitDy=0;labelBackgroundColor=default;strokeColor=#6c8ebf;align=center;verticalAlign=middle;fontFamily=Helvetica;fontSize=11;fontColor=default;startArrow=none;startFill=0;endArrow=openThin;endFill=0;fillColor=#dae8fc;gradientColor=#7ea6e0;jumpStyle=arc;entryX=0;entryY=1;entryDx=0;entryDy=0;" parent="1" source="qDwPxaCXtAMD6tZ4ISzB-4" edge="1" target="qDwPxaCXtAMD6tZ4ISzB-7">
          <mxGeometry relative="1" as="geometry">
            <mxPoint x="370" y="340" as="targetPoint" />
          </mxGeometry>
        </mxCell>
        <mxCell id="qDwPxaCXtAMD6tZ4ISzB-29" style="edgeStyle=none;shape=connector;rounded=0;jumpStyle=arc;orthogonalLoop=1;jettySize=auto;html=1;exitX=1;exitY=0.5;exitDx=0;exitDy=0;labelBackgroundColor=default;strokeColor=#6c8ebf;align=center;verticalAlign=middle;fontFamily=Helvetica;fontSize=11;fontColor=default;startArrow=none;startFill=0;endArrow=openThin;endFill=0;fillColor=#dae8fc;gradientColor=#7ea6e0;entryX=0;entryY=0.5;entryDx=0;entryDy=0;" parent="1" source="qDwPxaCXtAMD6tZ4ISzB-4" target="qDwPxaCXtAMD6tZ4ISzB-9" edge="1">
          <mxGeometry relative="1" as="geometry">
            <mxPoint x="440" y="450" as="targetPoint" />
          </mxGeometry>
        </mxCell>
        <mxCell id="qDwPxaCXtAMD6tZ4ISzB-30" style="edgeStyle=none;shape=connector;rounded=0;jumpStyle=arc;orthogonalLoop=1;jettySize=auto;html=1;exitX=1;exitY=0.5;exitDx=0;exitDy=0;entryX=0;entryY=0.5;entryDx=0;entryDy=0;labelBackgroundColor=default;strokeColor=#6c8ebf;align=center;verticalAlign=middle;fontFamily=Helvetica;fontSize=11;fontColor=default;startArrow=none;startFill=0;endArrow=openThin;endFill=0;fillColor=#dae8fc;gradientColor=#7ea6e0;" parent="1" source="qDwPxaCXtAMD6tZ4ISzB-4" target="qDwPxaCXtAMD6tZ4ISzB-11" edge="1">
          <mxGeometry relative="1" as="geometry" />
        </mxCell>
        <mxCell id="qDwPxaCXtAMD6tZ4ISzB-33" style="edgeStyle=none;shape=connector;rounded=0;jumpStyle=arc;orthogonalLoop=1;jettySize=auto;html=1;exitX=1;exitY=0.5;exitDx=0;exitDy=0;entryX=0;entryY=0.5;entryDx=0;entryDy=0;labelBackgroundColor=default;strokeColor=#6c8ebf;align=center;verticalAlign=middle;fontFamily=Helvetica;fontSize=11;fontColor=default;startArrow=none;startFill=0;endArrow=openThin;endFill=0;fillColor=#dae8fc;gradientColor=#7ea6e0;" parent="1" source="qDwPxaCXtAMD6tZ4ISzB-3" target="qDwPxaCXtAMD6tZ4ISzB-8" edge="1">
          <mxGeometry relative="1" as="geometry" />
        </mxCell>
        <mxCell id="qDwPxaCXtAMD6tZ4ISzB-4" value="1" style="ellipse;whiteSpace=wrap;html=1;aspect=fixed;fillColor=#7fadf0;strokeColor=#5f8abb;fontSize=11;fontColor=#ffffff;" parent="1" vertex="1">
          <mxGeometry x="264" y="469" width="15" height="15" as="geometry" />
        </mxCell>
        <mxCell id="qDwPxaCXtAMD6tZ4ISzB-19" style="edgeStyle=none;shape=connector;rounded=0;orthogonalLoop=1;jettySize=auto;html=1;exitX=1;exitY=0.5;exitDx=0;exitDy=0;entryX=0;entryY=0.5;entryDx=0;entryDy=0;labelBackgroundColor=default;strokeColor=#6c8ebf;align=center;verticalAlign=middle;fontFamily=Helvetica;fontSize=11;fontColor=default;startArrow=none;startFill=0;endArrow=openThin;endFill=0;fillColor=#dae8fc;gradientColor=#7ea6e0;" parent="1" source="qDwPxaCXtAMD6tZ4ISzB-5" target="qDwPxaCXtAMD6tZ4ISzB-6" edge="1">
          <mxGeometry relative="1" as="geometry" />
        </mxCell>
        <mxCell id="qDwPxaCXtAMD6tZ4ISzB-39" style="edgeStyle=none;shape=connector;rounded=0;jumpStyle=arc;orthogonalLoop=1;jettySize=auto;html=1;exitX=1;exitY=0.5;exitDx=0;exitDy=0;entryX=0;entryY=0.5;entryDx=0;entryDy=0;labelBackgroundColor=default;strokeColor=#6c8ebf;align=center;verticalAlign=middle;fontFamily=Helvetica;fontSize=11;fontColor=default;startArrow=none;startFill=0;endArrow=openThin;endFill=0;fillColor=#dae8fc;gradientColor=#7ea6e0;" parent="1" source="qDwPxaCXtAMD6tZ4ISzB-5" target="qDwPxaCXtAMD6tZ4ISzB-10" edge="1">
          <mxGeometry relative="1" as="geometry" />
        </mxCell>
        <mxCell id="qDwPxaCXtAMD6tZ4ISzB-5" value="5" style="ellipse;whiteSpace=wrap;html=1;aspect=fixed;fillColor=#7fadf0;strokeColor=#5f8abb;fontSize=11;fontColor=#ffffff;" parent="1" vertex="1">
          <mxGeometry x="308" y="432" width="15" height="15" as="geometry" />
        </mxCell>
        <mxCell id="qDwPxaCXtAMD6tZ4ISzB-20" style="edgeStyle=none;shape=connector;rounded=0;orthogonalLoop=1;jettySize=auto;html=1;exitX=1;exitY=0.5;exitDx=0;exitDy=0;entryX=0;entryY=1;entryDx=0;entryDy=0;labelBackgroundColor=default;strokeColor=#6c8ebf;align=center;verticalAlign=middle;fontFamily=Helvetica;fontSize=11;fontColor=default;startArrow=none;startFill=0;endArrow=openThin;endFill=0;fillColor=#dae8fc;gradientColor=#7ea6e0;" parent="1" source="qDwPxaCXtAMD6tZ4ISzB-6" target="qDwPxaCXtAMD6tZ4ISzB-7" edge="1">
          <mxGeometry relative="1" as="geometry" />
        </mxCell>
        <mxCell id="qDwPxaCXtAMD6tZ4ISzB-28" style="edgeStyle=none;shape=connector;rounded=0;jumpStyle=arc;orthogonalLoop=1;jettySize=auto;html=1;exitX=1;exitY=0.5;exitDx=0;exitDy=0;entryX=0;entryY=0.5;entryDx=0;entryDy=0;labelBackgroundColor=default;strokeColor=#6c8ebf;align=center;verticalAlign=middle;fontFamily=Helvetica;fontSize=11;fontColor=default;startArrow=none;startFill=0;endArrow=openThin;endFill=0;fillColor=#dae8fc;gradientColor=#7ea6e0;" parent="1" source="qDwPxaCXtAMD6tZ4ISzB-6" target="qDwPxaCXtAMD6tZ4ISzB-9" edge="1">
          <mxGeometry relative="1" as="geometry" />
        </mxCell>
        <mxCell id="qDwPxaCXtAMD6tZ4ISzB-32" style="edgeStyle=none;shape=connector;rounded=0;jumpStyle=arc;orthogonalLoop=1;jettySize=auto;html=1;exitX=1;exitY=0.5;exitDx=0;exitDy=0;entryX=0;entryY=0.5;entryDx=0;entryDy=0;labelBackgroundColor=default;strokeColor=#6c8ebf;align=center;verticalAlign=middle;fontFamily=Helvetica;fontSize=11;fontColor=default;startArrow=none;startFill=0;endArrow=openThin;endFill=0;fillColor=#dae8fc;gradientColor=#7ea6e0;" parent="1" source="qDwPxaCXtAMD6tZ4ISzB-6" target="qDwPxaCXtAMD6tZ4ISzB-11" edge="1">
          <mxGeometry relative="1" as="geometry" />
        </mxCell>
        <mxCell id="qDwPxaCXtAMD6tZ4ISzB-6" value="6" style="ellipse;whiteSpace=wrap;html=1;aspect=fixed;fillColor=#7fadf0;strokeColor=#5f8abb;fontSize=11;fontColor=#ffffff;" parent="1" vertex="1">
          <mxGeometry x="345" y="382" width="15" height="15" as="geometry" />
        </mxCell>
        <mxCell id="qDwPxaCXtAMD6tZ4ISzB-23" style="edgeStyle=none;shape=connector;rounded=0;jumpStyle=arc;orthogonalLoop=1;jettySize=auto;html=1;exitX=1;exitY=0.5;exitDx=0;exitDy=0;entryX=0.5;entryY=0;entryDx=0;entryDy=0;labelBackgroundColor=default;strokeColor=#6c8ebf;align=center;verticalAlign=middle;fontFamily=Helvetica;fontSize=11;fontColor=default;startArrow=none;startFill=0;endArrow=openThin;endFill=0;fillColor=#dae8fc;gradientColor=#7ea6e0;" parent="1" source="qDwPxaCXtAMD6tZ4ISzB-7" target="qDwPxaCXtAMD6tZ4ISzB-8" edge="1">
          <mxGeometry relative="1" as="geometry" />
        </mxCell>
        <mxCell id="qDwPxaCXtAMD6tZ4ISzB-24" style="edgeStyle=none;shape=connector;rounded=0;jumpStyle=arc;orthogonalLoop=1;jettySize=auto;html=1;exitX=1;exitY=0.5;exitDx=0;exitDy=0;entryX=0;entryY=0.5;entryDx=0;entryDy=0;labelBackgroundColor=default;strokeColor=#6c8ebf;align=center;verticalAlign=middle;fontFamily=Helvetica;fontSize=11;fontColor=default;startArrow=none;startFill=0;endArrow=openThin;endFill=0;fillColor=#dae8fc;gradientColor=#7ea6e0;" parent="1" source="qDwPxaCXtAMD6tZ4ISzB-7" target="qDwPxaCXtAMD6tZ4ISzB-9" edge="1">
          <mxGeometry relative="1" as="geometry" />
        </mxCell>
        <mxCell id="qDwPxaCXtAMD6tZ4ISzB-35" style="edgeStyle=none;shape=connector;rounded=0;jumpStyle=arc;orthogonalLoop=1;jettySize=auto;html=1;exitX=1;exitY=0.5;exitDx=0;exitDy=0;entryX=0;entryY=0.5;entryDx=0;entryDy=0;labelBackgroundColor=default;strokeColor=#6c8ebf;align=center;verticalAlign=middle;fontFamily=Helvetica;fontSize=11;fontColor=default;startArrow=none;startFill=0;endArrow=openThin;endFill=0;fillColor=#dae8fc;gradientColor=#7ea6e0;" parent="1" source="qDwPxaCXtAMD6tZ4ISzB-7" target="qDwPxaCXtAMD6tZ4ISzB-15" edge="1">
          <mxGeometry relative="1" as="geometry" />
        </mxCell>
        <mxCell id="qDwPxaCXtAMD6tZ4ISzB-7" value="2" style="ellipse;whiteSpace=wrap;html=1;aspect=fixed;fillColor=#7fadf0;strokeColor=#5f8abb;fontSize=11;fontColor=#ffffff;" parent="1" vertex="1">
          <mxGeometry x="360" y="330" width="15" height="15" as="geometry" />
        </mxCell>
        <mxCell id="qDwPxaCXtAMD6tZ4ISzB-36" style="edgeStyle=none;shape=connector;rounded=0;jumpStyle=arc;orthogonalLoop=1;jettySize=auto;html=1;exitX=1;exitY=0.5;exitDx=0;exitDy=0;entryX=0;entryY=0.5;entryDx=0;entryDy=0;labelBackgroundColor=default;strokeColor=#6c8ebf;align=center;verticalAlign=middle;fontFamily=Helvetica;fontSize=11;fontColor=default;startArrow=none;startFill=0;endArrow=openThin;endFill=0;fillColor=#dae8fc;gradientColor=#7ea6e0;" parent="1" source="qDwPxaCXtAMD6tZ4ISzB-8" target="qDwPxaCXtAMD6tZ4ISzB-11" edge="1">
          <mxGeometry relative="1" as="geometry" />
        </mxCell>
        <mxCell id="qDwPxaCXtAMD6tZ4ISzB-8" value="3" style="ellipse;whiteSpace=wrap;html=1;aspect=fixed;fillColor=#7fadf0;strokeColor=#5f8abb;fontSize=11;fontColor=#ffffff;" parent="1" vertex="1">
          <mxGeometry x="366" y="512" width="15" height="15" as="geometry" />
        </mxCell>
        <mxCell id="qDwPxaCXtAMD6tZ4ISzB-25" style="edgeStyle=none;shape=connector;rounded=0;jumpStyle=arc;orthogonalLoop=1;jettySize=auto;html=1;exitX=1;exitY=1;exitDx=0;exitDy=0;entryX=0;entryY=0.5;entryDx=0;entryDy=0;labelBackgroundColor=default;strokeColor=#6c8ebf;align=center;verticalAlign=middle;fontFamily=Helvetica;fontSize=11;fontColor=default;startArrow=none;startFill=0;endArrow=openThin;endFill=0;fillColor=#dae8fc;gradientColor=#7ea6e0;" parent="1" source="qDwPxaCXtAMD6tZ4ISzB-9" target="qDwPxaCXtAMD6tZ4ISzB-10" edge="1">
          <mxGeometry relative="1" as="geometry" />
        </mxCell>
        <mxCell id="qDwPxaCXtAMD6tZ4ISzB-9" value="7" style="ellipse;whiteSpace=wrap;html=1;aspect=fixed;fillColor=#7fadf0;strokeColor=#5f8abb;fontSize=11;fontColor=#ffffff;" parent="1" vertex="1">
          <mxGeometry x="390" y="430" width="15" height="15" as="geometry" />
        </mxCell>
        <mxCell id="qDwPxaCXtAMD6tZ4ISzB-26" style="edgeStyle=none;shape=connector;rounded=0;jumpStyle=arc;orthogonalLoop=1;jettySize=auto;html=1;exitX=1;exitY=0.5;exitDx=0;exitDy=0;entryX=0;entryY=0.5;entryDx=0;entryDy=0;labelBackgroundColor=default;strokeColor=#6c8ebf;align=center;verticalAlign=middle;fontFamily=Helvetica;fontSize=11;fontColor=default;startArrow=none;startFill=0;endArrow=openThin;endFill=0;fillColor=#dae8fc;gradientColor=#7ea6e0;" parent="1" source="qDwPxaCXtAMD6tZ4ISzB-10" target="qDwPxaCXtAMD6tZ4ISzB-11" edge="1">
          <mxGeometry relative="1" as="geometry" />
        </mxCell>
        <mxCell id="qDwPxaCXtAMD6tZ4ISzB-10" value="8" style="ellipse;whiteSpace=wrap;html=1;aspect=fixed;fillColor=#7fadf0;strokeColor=#5f8abb;fontSize=11;fontColor=#ffffff;" parent="1" vertex="1">
          <mxGeometry x="414" y="452" width="15" height="15" as="geometry" />
        </mxCell>
        <mxCell id="qDwPxaCXtAMD6tZ4ISzB-41" style="edgeStyle=none;shape=connector;rounded=0;jumpStyle=arc;orthogonalLoop=1;jettySize=auto;html=1;exitX=1;exitY=0.5;exitDx=0;exitDy=0;entryX=0;entryY=0.5;entryDx=0;entryDy=0;labelBackgroundColor=default;strokeColor=#6c8ebf;align=center;verticalAlign=middle;fontFamily=Helvetica;fontSize=11;fontColor=default;startArrow=none;startFill=0;endArrow=openThin;endFill=0;fillColor=#dae8fc;gradientColor=#7ea6e0;" parent="1" source="qDwPxaCXtAMD6tZ4ISzB-11" target="qDwPxaCXtAMD6tZ4ISzB-15" edge="1">
          <mxGeometry relative="1" as="geometry" />
        </mxCell>
        <mxCell id="qDwPxaCXtAMD6tZ4ISzB-11" value="4" style="ellipse;whiteSpace=wrap;html=1;aspect=fixed;fillColor=#7fadf0;strokeColor=#5f8abb;fontSize=11;fontColor=#ffffff;" parent="1" vertex="1">
          <mxGeometry x="463" y="467" width="15" height="15" as="geometry" />
        </mxCell>
        <mxCell id="qDwPxaCXtAMD6tZ4ISzB-15" value="i" style="rounded=0;whiteSpace=wrap;fillColor=#7fadf0;strokeColor=#5f8abb;gradientDirection=radial;aspect=fixed;fontSize=11;fontColor=#ffffff;" parent="1" vertex="1">
          <mxGeometry x="499" y="467" width="15" height="15" as="geometry" />
        </mxCell>
      </root>
    </mxGraphModel>
  </diagram>
</mxfile>
